<?xml version="1.0" encoding="UTF-8" standalone="no"?>
<!DOCTYPE svg PUBLIC "-//W3C//DTD SVG 1.1//EN"
 "http://www.w3.org/Graphics/SVG/1.1/DTD/svg11.dtd">
<!-- Generated by graphviz version 2.38.0 (20140413.2041)
 -->
<!-- Title: ll Pages: 1 -->
<svg width="389pt" height="114pt"
 viewBox="14.40 14.40 374.40 99.65" xmlns="http://www.w3.org/2000/svg" xmlns:xlink="http://www.w3.org/1999/xlink">
<g id="graph0" class="graph" transform="scale(0.66605 0.66605) rotate(0) translate(25.62 145.62)">
<title>ll</title>
<polygon fill="white" stroke="none" points="-4,4 -4,-124 536.5,-124 536.5,4 -4,4"/>
<!-- ll -->
<g id="node1" class="node"><title>ll</title>
<polygon fill="none" stroke="black" points="8.5,-78.5 8.5,-115.5 69.5,-115.5 69.5,-78.5 8.5,-78.5"/>
<text text-anchor="start" x="19.5" y="-94.3" font-family="Helvetica,sans-Serif" font-weight="bold" font-size="14.00">LLIST</text>
<polygon fill="none" stroke="black" points="69.5,-78.5 69.5,-115.5 123.5,-115.5 123.5,-78.5 69.5,-78.5"/>
<text text-anchor="start" x="80.5" y="-94.3" font-family="Helvetica,sans-Serif" font-style="italic" font-size="14.00">head</text>
</g>
<!-- Apple -->
<g id="node2" class="node"><title>Apple</title>
<polygon fill="none" stroke="black" points="65.5,-3.5 65.5,-34.5 127.5,-34.5 127.5,-3.5 65.5,-3.5"/>
<text text-anchor="start" x="73.5" y="-15.3" font-family="Helvetica,sans-Serif" font-size="14.00">&quot;Apple&quot;</text>
<polygon fill="none" stroke="black" points="127.5,-3.5 127.5,-34.5 170.5,-34.5 170.5,-3.5 127.5,-3.5"/>
<text text-anchor="start" x="135.5" y="-16.3" font-family="Helvetica,sans-Serif" font-style="italic" font-size="14.00">next</text>
</g>
<!-- ll&#45;&gt;Apple -->
<g id="edge1" class="edge"><title>ll:head&#45;&gt;Apple:data</title>
<path fill="none" stroke="black" d="M96.5,-77.5C96.5,-62.7708 96.5,-56.7583 96.5,-45.7065"/>
<polygon fill="black" stroke="black" points="100,-45.5 96.5,-35.5 93.0001,-45.5 100,-45.5"/>
</g>
<!-- Berry -->
<g id="node3" class="node"><title>Berry</title>
<polygon fill="none" stroke="black" points="204.5,-3.5 204.5,-34.5 264.5,-34.5 264.5,-3.5 204.5,-3.5"/>
<text text-anchor="start" x="212.5" y="-15.3" font-family="Helvetica,sans-Serif" font-size="14.00">&quot;Berry&quot;</text>
<polygon fill="none" stroke="black" points="264.5,-3.5 264.5,-34.5 307.5,-34.5 307.5,-3.5 264.5,-3.5"/>
<text text-anchor="start" x="272.5" y="-16.3" font-family="Helvetica,sans-Serif" font-style="italic" font-size="14.00">next</text>
</g>
<!-- Apple&#45;&gt;Berry -->
<g id="edge2" class="edge"><title>Apple:next&#45;&gt;Berry</title>
<path fill="none" stroke="black" d="M171.5,-18.5C175.999,-18.5 180.635,-18.5149 185.307,-18.541"/>
<polygon fill="black" stroke="black" points="185.532,-22.0426 195.556,-18.6147 185.582,-15.0428 185.532,-22.0426"/>
</g>
<!-- Cherry -->
<g id="node4" class="node"><title>Cherry</title>
<polygon fill="none" stroke="black" points="341.5,-3.5 341.5,-34.5 409.5,-34.5 409.5,-3.5 341.5,-3.5"/>
<text text-anchor="start" x="349.5" y="-15.3" font-family="Helvetica,sans-Serif" font-size="14.00">&quot;Cherry&quot;</text>
<polygon fill="none" stroke="black" points="409.5,-3.5 409.5,-34.5 452.5,-34.5 452.5,-3.5 409.5,-3.5"/>
<text text-anchor="start" x="417.5" y="-16.3" font-family="Helvetica,sans-Serif" font-style="italic" font-size="14.00">next</text>
</g>
<!-- Berry&#45;&gt;Cherry -->
<g id="edge3" class="edge"><title>Berry:next&#45;&gt;Cherry</title>
<path fill="none" stroke="black" d="M308.5,-18.5C313.041,-18.5 317.715,-18.5138 322.429,-18.5381"/>
<polygon fill="black" stroke="black" points="322.751,-22.0403 332.774,-18.607 322.797,-15.0404 322.751,-22.0403"/>
</g>
<!-- None -->
<g id="node5" class="node"><title>None</title>
<text text-anchor="middle" x="505.5" y="-15.8" font-family="Helvetica,sans-Serif" font-size="14.00">None</text>
</g>
<!-- Cherry&#45;&gt;None -->
<g id="edge4" class="edge"><title>Cherry:next&#45;&gt;None</title>
<path fill="none" stroke="black" d="M453.5,-18.5C458.285,-18.5 463.322,-18.5445 468.291,-18.6148"/>
<polygon fill="black" stroke="black" points="468.235,-22.1143 478.295,-18.7892 468.357,-15.1154 468.235,-22.1143"/>
</g>
</g>
</svg>
