<?xml version="1.0" encoding="UTF-8" standalone="no"?>
<!DOCTYPE svg PUBLIC "-//W3C//DTD SVG 1.1//EN"
 "http://www.w3.org/Graphics/SVG/1.1/DTD/svg11.dtd">
<!-- Generated by graphviz version 2.38.0 (20140413.2041)
 -->
<!-- Title: org Pages: 1 -->
<svg width="533pt" height="190pt"
 viewBox="14.40 14.40 518.40 175.11" xmlns="http://www.w3.org/2000/svg" xmlns:xlink="http://www.w3.org/1999/xlink">
<g id="graph0" class="graph" transform="scale(0.618108 0.618108) rotate(0) translate(27.2969 279.297)">
<title>org</title>
<polygon fill="white" stroke="none" points="-4,4 -4,-256 811.391,-256 811.391,4 -4,4"/>
<!-- food -->
<g id="node1" class="node"><title>food</title>
<ellipse fill="darkgreen" stroke="black" stroke-width="0.5" cx="415.446" cy="-234" rx="28.6953" ry="18"/>
<text text-anchor="middle" x="415.446" y="-230.3" font-family="Helvetica,sans-Serif" font-size="14.00" fill="white">food</text>
</g>
<!-- Italian -->
<g id="node2" class="node"><title>Italian</title>
<ellipse fill="white" stroke="black" stroke-width="0.5" cx="256.446" cy="-162" rx="35.194" ry="18"/>
<text text-anchor="middle" x="256.446" y="-158.3" font-family="Helvetica,sans-Serif" font-size="14.00">Italian</text>
</g>
<!-- food&#45;&gt;Italian -->
<g id="edge1" class="edge"><title>food&#45;&gt;Italian</title>
<path fill="none" stroke="black" d="M392.665,-222.971C366.321,-211.373 322.638,-192.141 291.854,-178.589"/>
<polygon fill="black" stroke="black" points="292.914,-175.231 282.351,-174.405 290.093,-181.638 292.914,-175.231"/>
</g>
<!-- Indian -->
<g id="node3" class="node"><title>Indian</title>
<ellipse fill="white" stroke="black" stroke-width="0.5" cx="415.446" cy="-162" rx="35.9954" ry="18"/>
<text text-anchor="middle" x="415.446" y="-158.3" font-family="Helvetica,sans-Serif" font-size="14.00">Indian</text>
</g>
<!-- food&#45;&gt;Indian -->
<g id="edge2" class="edge"><title>food&#45;&gt;Indian</title>
<path fill="none" stroke="black" d="M415.446,-215.697C415.446,-207.983 415.446,-198.712 415.446,-190.112"/>
<polygon fill="black" stroke="black" points="418.946,-190.104 415.446,-180.104 411.946,-190.104 418.946,-190.104"/>
</g>
<!-- Mexican -->
<g id="node4" class="node"><title>Mexican</title>
<ellipse fill="white" stroke="black" stroke-width="0.5" cx="605.446" cy="-162" rx="44.6926" ry="18"/>
<text text-anchor="middle" x="605.446" y="-158.3" font-family="Helvetica,sans-Serif" font-size="14.00">Mexican</text>
</g>
<!-- food&#45;&gt;Mexican -->
<g id="edge3" class="edge"><title>food&#45;&gt;Mexican</title>
<path fill="none" stroke="black" d="M439.509,-224.134C470.767,-212.618 525.829,-192.333 563.904,-178.305"/>
<polygon fill="black" stroke="black" points="565.502,-181.446 573.676,-174.705 563.082,-174.878 565.502,-181.446"/>
</g>
<!-- lasagna -->
<g id="node5" class="node"><title>lasagna</title>
<ellipse fill="white" stroke="black" stroke-width="0.5" cx="163.446" cy="-90" rx="42.7926" ry="18"/>
<text text-anchor="middle" x="163.446" y="-86.3" font-family="Helvetica,sans-Serif" font-size="14.00">lasagna</text>
</g>
<!-- Italian&#45;&gt;lasagna -->
<g id="edge4" class="edge"><title>Italian&#45;&gt;lasagna</title>
<path fill="none" stroke="black" d="M237.176,-146.496C224.012,-136.587 206.351,-123.294 191.615,-112.203"/>
<polygon fill="black" stroke="black" points="193.427,-109.186 183.332,-105.968 189.217,-114.779 193.427,-109.186"/>
</g>
<!-- pizza -->
<g id="node6" class="node"><title>pizza</title>
<ellipse fill="white" stroke="black" stroke-width="0.5" cx="256.446" cy="-90" rx="31.6951" ry="18"/>
<text text-anchor="middle" x="256.446" y="-86.3" font-family="Helvetica,sans-Serif" font-size="14.00">pizza</text>
</g>
<!-- Italian&#45;&gt;pizza -->
<g id="edge5" class="edge"><title>Italian&#45;&gt;pizza</title>
<path fill="none" stroke="black" d="M256.446,-143.697C256.446,-135.983 256.446,-126.712 256.446,-118.112"/>
<polygon fill="black" stroke="black" points="259.946,-118.104 256.446,-108.104 252.946,-118.104 259.946,-118.104"/>
</g>
<!-- tikka masala -->
<g id="node7" class="node"><title>tikka masala</title>
<ellipse fill="white" stroke="black" stroke-width="0.5" cx="367.446" cy="-90" rx="61.1893" ry="18"/>
<text text-anchor="middle" x="367.446" y="-86.3" font-family="Helvetica,sans-Serif" font-size="14.00">tikka masala</text>
</g>
<!-- Indian&#45;&gt;tikka masala -->
<g id="edge6" class="edge"><title>Indian&#45;&gt;tikka masala</title>
<path fill="none" stroke="black" d="M404.313,-144.765C398.546,-136.354 391.371,-125.89 384.887,-116.436"/>
<polygon fill="black" stroke="black" points="387.73,-114.392 379.188,-108.124 381.957,-118.351 387.73,-114.392"/>
</g>
<!-- saag -->
<g id="node8" class="node"><title>saag</title>
<ellipse fill="white" stroke="black" stroke-width="0.5" cx="477.446" cy="-90" rx="30.5947" ry="18"/>
<text text-anchor="middle" x="477.446" y="-86.3" font-family="Helvetica,sans-Serif" font-size="14.00">saag</text>
</g>
<!-- Indian&#45;&gt;saag -->
<g id="edge7" class="edge"><title>Indian&#45;&gt;saag</title>
<path fill="none" stroke="black" d="M429.515,-145.116C437.634,-135.949 447.988,-124.259 456.994,-114.091"/>
<polygon fill="black" stroke="black" points="459.848,-116.147 463.859,-106.34 454.608,-111.505 459.848,-116.147"/>
</g>
<!-- burrito -->
<g id="node9" class="node"><title>burrito</title>
<ellipse fill="red" stroke="black" stroke-width="0.5" cx="562.446" cy="-90" rx="36.2938" ry="18"/>
<text text-anchor="middle" x="562.446" y="-86.3" font-family="Helvetica,sans-Serif" font-size="14.00" fill="white">burrito</text>
</g>
<!-- Mexican&#45;&gt;burrito -->
<g id="edge8" class="edge"><title>Mexican&#45;&gt;burrito</title>
<path fill="none" stroke="black" d="M595.255,-144.411C590.061,-135.955 583.635,-125.494 577.851,-116.078"/>
<polygon fill="black" stroke="black" points="580.78,-114.159 572.563,-107.47 574.815,-117.823 580.78,-114.159"/>
</g>
<!-- tacos -->
<g id="node10" class="node"><title>tacos</title>
<ellipse fill="white" stroke="black" stroke-width="0.5" cx="649.446" cy="-90" rx="32.4942" ry="18"/>
<text text-anchor="middle" x="649.446" y="-86.3" font-family="Helvetica,sans-Serif" font-size="14.00">tacos</text>
</g>
<!-- Mexican&#45;&gt;tacos -->
<g id="edge9" class="edge"><title>Mexican&#45;&gt;tacos</title>
<path fill="none" stroke="black" d="M615.873,-144.411C621.188,-135.955 627.764,-125.494 633.682,-116.078"/>
<polygon fill="black" stroke="black" points="636.735,-117.799 639.093,-107.47 630.808,-114.074 636.735,-117.799"/>
</g>
<!-- enchiladas -->
<g id="node11" class="node"><title>enchiladas</title>
<ellipse fill="white" stroke="black" stroke-width="0.5" cx="753.446" cy="-90" rx="53.8905" ry="18"/>
<text text-anchor="middle" x="753.446" y="-86.3" font-family="Helvetica,sans-Serif" font-size="14.00">enchiladas</text>
</g>
<!-- Mexican&#45;&gt;enchiladas -->
<g id="edge10" class="edge"><title>Mexican&#45;&gt;enchiladas</title>
<path fill="none" stroke="black" d="M633.283,-147.834C656.253,-136.97 689.102,-121.433 714.651,-109.349"/>
<polygon fill="black" stroke="black" points="716.158,-112.508 723.702,-105.068 713.165,-106.18 716.158,-112.508"/>
</g>
<!-- thin crust -->
<g id="node12" class="node"><title>thin crust</title>
<ellipse fill="white" stroke="black" stroke-width="0.5" cx="47.4458" cy="-18" rx="47.3916" ry="18"/>
<text text-anchor="middle" x="47.4458" y="-14.3" font-family="Helvetica,sans-Serif" font-size="14.00">thin crust</text>
</g>
<!-- pizza&#45;&gt;thin crust -->
<g id="edge11" class="edge"><title>pizza&#45;&gt;thin crust</title>
<path fill="none" stroke="black" d="M231.867,-78.3995C226.49,-76.1955 220.804,-73.9517 215.446,-72 192.833,-63.7628 134.528,-45.6223 92.9629,-32.8684"/>
<polygon fill="black" stroke="black" points="93.9027,-29.4958 83.3161,-29.9128 91.8521,-36.1887 93.9027,-29.4958"/>
</g>
<!-- Chicago&#45;style -->
<g id="node13" class="node"><title>Chicago&#45;style</title>
<ellipse fill="red" stroke="black" stroke-width="0.5" cx="178.446" cy="-18" rx="65.7887" ry="18"/>
<text text-anchor="middle" x="178.446" y="-14.3" font-family="Helvetica,sans-Serif" font-size="14.00" fill="white">Chicago&#45;style</text>
</g>
<!-- pizza&#45;&gt;Chicago&#45;style -->
<g id="edge12" class="edge"><title>pizza&#45;&gt;Chicago&#45;style</title>
<path fill="none" stroke="black" d="M239.904,-74.1548C229.658,-64.9594 216.274,-52.9485 204.613,-42.4835"/>
<polygon fill="black" stroke="black" points="206.655,-39.6134 196.875,-35.5391 201.98,-44.8231 206.655,-39.6134"/>
</g>
<!-- New York&#45;style -->
<g id="node14" class="node"><title>New York&#45;style</title>
<ellipse fill="white" stroke="black" stroke-width="0.5" cx="334.446" cy="-18" rx="72.2875" ry="18"/>
<text text-anchor="middle" x="334.446" y="-14.3" font-family="Helvetica,sans-Serif" font-size="14.00">New York&#45;style</text>
</g>
<!-- pizza&#45;&gt;New York&#45;style -->
<g id="edge13" class="edge"><title>pizza&#45;&gt;New York&#45;style</title>
<path fill="none" stroke="black" d="M272.988,-74.1548C283.234,-64.9594 296.617,-52.9485 308.278,-42.4835"/>
<polygon fill="black" stroke="black" points="310.912,-44.8231 316.016,-35.5391 306.236,-39.6134 310.912,-44.8231"/>
</g>
<!-- Sicilian -->
<g id="node15" class="node"><title>Sicilian</title>
<ellipse fill="white" stroke="black" stroke-width="0.5" cx="464.446" cy="-18" rx="39.7935" ry="18"/>
<text text-anchor="middle" x="464.446" y="-14.3" font-family="Helvetica,sans-Serif" font-size="14.00">Sicilian</text>
</g>
<!-- pizza&#45;&gt;Sicilian -->
<g id="edge14" class="edge"><title>pizza&#45;&gt;Sicilian</title>
<path fill="none" stroke="black" d="M281.011,-78.361C286.389,-76.1594 292.079,-73.9262 297.446,-72 349.053,-53.4777 363.313,-52.9891 415.446,-36 418.39,-35.0405 421.428,-34.032 424.48,-33.005"/>
<polygon fill="black" stroke="black" points="425.848,-36.2366 434.185,-29.699 423.591,-29.6105 425.848,-36.2366"/>
</g>
</g>
</svg>
